<svg xmlns="http://www.w3.org/2000/svg" width="17" height="17">
    <path fill="#282828" fill-opacity="0" fill-rule="evenodd" d="M0 0h17v17H0V0z"/>
    <path fill="#FFF" fill-rule="evenodd" d="M11.994 9.004c0 .048-.009.093-.019.141-.009.045-.018.089-.036.132-.019.047-.048.089-.077.132-.019.027-.027.058-.05.084l-.067.064-.003.004h-.002l-5.412 5.196c-.151.167-.364.253-.577.253-.179 0-.358-.061-.505-.184-.318-.27-.349-.739-.072-1.046l4.976-4.776-4.976-4.776c-.277-.307-.246-.776.072-1.045.32-.269.802-.24 1.082.068l5.41 5.193.004.002.005.007.065.062c.022.025.03.055.048.082.031.044.06.086.08.134.017.043.026.086.035.131.01.048.019.093.019.142z"/>
</svg>
