<svg xmlns="http://www.w3.org/2000/svg" width="35" height="35">
    <path fill="#FFF" fill-rule="evenodd" d="M17.5 0C27.165 0 35 7.835 35 17.5S27.165 35 17.5 35-.001 27.165-.001 17.5 7.835 0 17.5 0z"/>
    <path fill="#157EFF" fill-rule="evenodd" d="M21.995 18.004c0 .048-.01.093-.019.14-.009.046-.018.09-.036.134-.02.046-.048.086-.077.129-.019.028-.027.059-.051.085l-.07.068-.001.001-5.412 5.196c-.152.167-.366.253-.577.253-.181 0-.36-.061-.506-.184-.317-.27-.349-.738-.071-1.046l4.974-4.776-4.974-4.775c-.278-.308-.246-.776.071-1.047.32-.268.803-.239 1.083.069l5.411 5.195h.001l.001.001.07.068c.024.026.032.058.051.086.029.042.057.082.076.129.019.044.028.088.037.134.009.047.019.092.019.14z"/>
</svg>
