<svg width="90" height="90" viewBox="0 0 90 90" fill="none" xmlns="http://www.w3.org/2000/svg">
<g clip-path="url(#clip0)">
<path fill-rule="evenodd" clip-rule="evenodd" d="M0 72.973V4.865H15.811V0H25.541V4.865H40.135V0H49.865V4.865H64.46V0H74.19V4.865H90.001V72.973H0ZM23.109 2.433H18.245V9.73H23.109V2.433V2.433ZM47.433 2.433H42.568V9.73H47.433V2.433V2.433ZM71.758 2.433H66.894V9.73H71.758V2.433V2.433ZM87.567 7.297H74.19V12.162H64.46V7.297H49.865V12.162H40.135V7.297H25.541V12.162H15.811V7.297H2.433V17.028H87.567V7.297V7.297ZM87.567 19.459H2.433V70.541H87.567V19.459V19.459ZM7.298 80.271H82.703V75.405H85.135V82.703H4.865V75.405H7.298V80.271V80.271ZM12.164 87.568H77.839V85.135H80.271V90H9.732V85.135H12.164V87.568V87.568Z" fill="#333333"/>
<path fill-rule="evenodd" clip-rule="evenodd" d="M45.0651 61.832L30.6211 40.824L32.6261 39.446L44.9381 57.357L60.9891 30.989L63.0661 32.254L45.0651 61.832V61.832Z" fill="#157EFF"/>
</g>
<defs>
<clipPath id="clip0">
<rect width="90" height="90" fill="white"/>
</clipPath>
</defs>
</svg>
