<svg xmlns="http://www.w3.org/2000/svg" width="90" height="90">
    <path fill="#4F61FF" fill-opacity="0" fill-rule="evenodd" d="M0 0h90.001v90H0V0z"/>
    <path fill="#333" fill-rule="evenodd" d="M77.838 90c-6.705 0-12.163-5.456-12.163-12.162V2.433H2.433v75.405c0 5.365 4.365 9.729 9.729 9.729H64.46V90H12.162C5.456 90 0 84.544 0 77.838V0h68.107v77.838c0 5.365 4.366 9.729 9.731 9.729 5.364 0 9.731-4.364 9.731-9.729V46.217h-6.083v-2.433h8.515v34.054C90.001 84.544 84.543 90 77.838 90zm-1.216-63.243h-6.083v-2.432h8.515v53.513h-2.432V26.757z"/>
    <path fill="#157EFF" fill-rule="evenodd" d="M10.945 65.676v-2.433h46.217v2.433H10.945zm0-12.163h46.217v2.433H10.945v-2.433zm0-9.729h46.217v2.433H10.945v-2.433zm12.162-19.459H45v2.432H23.107v-2.432z"/>
</svg>
