<svg xmlns="http://www.w3.org/2000/svg" width="90" height="90">
    <path fill="#4F61FF" fill-opacity="0" fill-rule="evenodd" d="M.001 0H90v90H.001V0z"/>
    <path fill="#333" fill-rule="evenodd" d="M.001 90V43.784h.385l4.5-12.364 2.284.832-4.196 11.532h84.065l-4.238-11.646 2.285-.831 4.541 12.477H90V90H.001zm87.567-43.784H2.433v41.352h85.135V46.216zm-54.73 23.108h24.325v-6.081h2.432v8.513H30.404v-8.513h2.434v6.081zm18.243-19.459h2.432v2.432h-2.432v-2.432zm-7.297 0h2.433v2.432h-2.433v-2.432zm-7.298 0h2.433v2.432h-2.433v-2.432z"/>
    <path fill="#157EFF" fill-rule="evenodd" d="M82.702 41.351V26.757H7.297v14.594H4.865V24.324h80.271v17.027h-2.434zm-4.866-26.757H12.163v7.298H9.731v-9.73H80.27v9.73h-2.434v-7.298zM72.972 2.433H17.027V9.73h-2.432V0h60.809v9.73h-2.432V2.433z"/>
</svg>
