<svg xmlns="http://www.w3.org/2000/svg" width="125" height="125">
    <path fill="#4F61FF" fill-opacity="0" fill-rule="evenodd" d="M0 0h125v125H0V0z"/>
    <path fill="#333" fill-rule="evenodd" d="M94.866 85.914H46.519v-18.41h48.347v18.41zM92.662 69.7H48.725v14.018h43.937V69.7zm1.103-27.726h-34c-.609 0-1.103-.492-1.103-1.098 0-.606.494-1.098 1.103-1.098h34c.607 0 1.101.492 1.101 1.098 0 .606-.494 1.098-1.101 1.098zm0 11.16h-38c-.609 0-1.103-.492-1.103-1.098 0-.607.494-1.098 1.103-1.098h38c.607 0 1.101.491 1.101 1.098 0 .606-.494 1.098-1.101 1.098zm30.07 44.646c-.108 2.529-1.088 4.65-2.915 6.306-3.939 3.574-10.712 3.91-13.122 3.91-.497 0-.808-.014-.871-.017-.588-.03-1.048-.512-1.048-1.096v-6.704l-80.27-.037c-.607 0-1.103-.492-1.103-1.098v-5.398c0-.606.496-1.097 1.103-1.097.61 0 1.104.491 1.104 1.097v4.3l79.166.037V33.908c0-.003.001-.004.003-.004 14.048.243 15.338-4.182 15.351-4.224.006-.031.016-.062.026-.092-1.843-6.434-9.954-6.543-10.34-6.545H36.112c-.61 0-1.104-.491-1.104-1.097s.494-1.098 1.104-1.098h74.808c4.467 0 12.916 2.415 12.916 11.551 0 2.717.026 7.834.057 14.076.088 17.788.223 44.67-.058 51.305zm-2.147-51.294c-.031-6.031-.056-11.01-.059-13.796-1.87 1.563-5.704 3.264-13.544 3.41v69.694c2.362-.034 8.154-.428 11.353-3.333 1.395-1.265 2.11-2.827 2.194-4.772.277-6.585.143-33.436.056-51.203z"/>
    <path fill="#157EFF" fill-rule="evenodd" d="M54.114 29.225l-7.729 7.699c-.214.214-.497.321-.78.321-.282 0-.564-.107-.779-.321-.43-.43-.43-1.124 0-1.553l7.729-7.698c.43-.429 1.128-.429 1.559 0 .43.429.43 1.123 0 1.552zm-16.175 39.2c-1.297.815-1.224 2.279-1.22 2.34l.003 5.714H17.701v-7.046c-.155-.163-.548-.554-1.379-1.126-7.223-4.965-10.194-14.826-5.94-23.82 1.951-4.123 5.546-7.309 9.846-8.875 13.271-4.831 25.778 4.88 25.778 17.446 0 6.342-3.092 12.228-8.067 15.367zM32.952 37.51c-11.553-3.907-22.327 4.591-22.327 15.548 0 5.426 2.596 10.45 6.949 13.443 1.651 1.134 2.12 1.862 2.255 2.197.051.129.077.266.077.405v5.18h14.61v-3.439c-.006-.026-.2-2.742 2.244-4.276 6.295-3.967 9.134-13.063 5.309-21.125-1.789-3.769-5.153-6.592-9.117-7.933zm-6.169-6.406c-.608 0-1.102-.492-1.102-1.099V19.118c0-.606.494-1.098 1.102-1.098.609 0 1.102.492 1.102 1.098v10.887c0 .607-.493 1.099-1.102 1.099zM8.816 37.245c-.281 0-.564-.107-.778-.321L.309 29.225c-.431-.429-.431-1.123 0-1.552.433-.431 1.131-.428 1.561 0l7.728 7.698c.429.429.429 1.123 0 1.553-.218.214-.499.321-.782.321zm9.962 41.954H35.44c.607 0 1.101.492 1.101 1.098 0 .606-.494 1.098-1.101 1.098H18.778c-.608 0-1.101-.492-1.101-1.098 0-.606.493-1.098 1.101-1.098zm3.086 4.914h10.489c.609 0 1.102.491 1.102 1.097 0 .607-.493 1.099-1.102 1.099H21.864c-.609 0-1.103-.492-1.103-1.099 0-.606.494-1.097 1.103-1.097z"/>
</svg>
